<svg xmlns="http://www.w3.org/2000/svg" xmlns:svg="http://www.w3.org/2000/svg" xmlns:xlink="http://www.w3.org/1999/xlink" id="svg8" width="186.45" height="186.45" version="1.1" viewBox="0 0 49.332 49.332"><metadata id="metadata5"/><g id="layer1" transform="translate(-41.1824,-80.95176)"><g style="stroke:none" id="g7243" transform="translate(2.5649855,38.688531)"><circle style="opacity:1;fill:#8ec642;fill-opacity:1;fill-rule:evenodd;stroke:none;stroke-width:.31833404" id="path1855" cx="69.082" cy="57.203" r="1.098"/><use style="stroke:none" id="use7236" width="100%" height="100%" x="0" y="0" transform="matrix(1.75,0,0,1.75,-54.761766,-45.814498)" xlink:href="#path1855"/><use style="stroke:none" id="use7238" width="100%" height="100%" x="0" y="0" transform="matrix(2.5,0,0,2.5,-110.77931,-92.998932)" xlink:href="#path1855"/></g><g id="use8202" transform="rotate(45,17.86449,89.369475)" style="fill:#000;stroke:none"><circle id="circle8216" cx="69.082" cy="57.203" r="1.098" style="opacity:1;fill:#63863d;fill-opacity:1;fill-rule:evenodd;stroke:none;stroke-width:.31833404"/><use id="use8218" width="100%" height="100%" x="0" y="0" transform="matrix(1.75,0,0,1.75,-54.761766,-45.814498)" xlink:href="#circle8216" style="stroke:none"/><use id="use8220" width="100%" height="100%" x="0" y="0" transform="matrix(2.5,0,0,2.5,-110.77931,-92.998932)" xlink:href="#circle8216" style="stroke:none"/></g><use style="fill:#000;stroke:#000" id="use8266" width="100%" height="100%" x="0" y="0" transform="rotate(90,65.84817,105.61753)" xlink:href="#g7243"/><use style="fill:#000;stroke:#000" id="use8268" width="100%" height="100%" x="0" y="0" transform="rotate(-90,65.84817,105.61753)" xlink:href="#g7243"/><use style="fill:#000;stroke:#000" id="use8270" width="100%" height="100%" x="0" y="0" transform="rotate(180,65.84817,105.61753)" xlink:href="#g7243"/><use style="fill:#000;stroke:#000" id="use8274" width="100%" height="100%" x="0" y="0" transform="rotate(90,65.922674,105.76929)" xlink:href="#use8202"/><use style="fill:#000;stroke:#000" id="use8276" width="100%" height="100%" x="0" y="0" transform="rotate(-90,65.922674,105.76929)" xlink:href="#use8202"/><use style="fill:#000;stroke:#000" id="use8278" width="100%" height="100%" x="0" y="0" transform="rotate(180,65.922674,105.76929)" xlink:href="#use8202"/></g></svg>